# xmcd
# 
# Track frame offsets:
#     150
#     18643
#     35784
#     58580
#     76810
#     87683
#     99464
#     110027
#     124993
#     135660
#     149458
#     163540
#     177165
#     189924
#     203305
#     215635
#     231960
#     244655
#     256653
#     267501
#     277800
#     292625
#     307817
#     323740
# 
# Disc length: 4526
# 
# Revision: 2
# Processed by: cddbd v1.5.2PL0 Copyright (c) Steve Scherf et al.
# Submitted via: fre:ac v1.0.31
# 
DISCID=5211ac18
DTITLE=Motown - Complete Motown Singles - Vol. 11A  - Disc 58
DYEAR=2008
DGENRE=R&B
TTITLE0=Diana Ross - Reach Out I'll Be There (mono)
TTITLE1=Diana Ross - (They Long To Be) Close To You (mono)
TTITLE2=Diana Ross - Reach Out I'll Be There (long stereo promo version)
TTITLE3=Diana Ross - Reach Out I'll Be There (short stereo promo version)
TTITLE4=P.J. (Patti Jerome) - (I've Given You) The Best Years Of My Life (mono)
TTITLE5=P.J. (Patti Jerome) - It Takes A Man To Teach A Woman How To Love (mono)
TTITLE6=Stoney and Meatloaf - What You See Is What You Get (mono)
TTITLE7=Stoney and Meatloaf - Lady Be Mine (mono)
TTITLE8=Stoney and Meatloaf - What You See Is What You Get (stereo promo version)
TTITLE9=The Supremes - Nathan Jones (mono)
TTITLE10=The Supremes - Happy (Is A Bumpy Road) (mono)
TTITLE11=The Supremes - Nathan Jones (stereo promo version)
TTITLE12=Bobby Darin - Melodie (mono)
TTITLE13=Bobby Darin - Someday We'll Be Together (mono)
TTITLE14=The Impact Of Brass - Never Can Say Goodbye (mono)
TTITLE15=The Impact Of Brass - So Far, So Good (mono)
TTITLE16=The Impact Of Brass - Never Can Say Goodbye (stereo promo version)
TTITLE17=King Floyd - Heartaches (mono)
TTITLE18=King Floyd - Together We Can Do Anything (mono)
TTITLE19=Diana Ross with The Jackson 5 - Feelin' Alright (mono)
TTITLE20=Diana Ross and Bill Cosby - Love Story (mono)
TTITLE21=Gladys Knight and The Pips - I Don't Want To Do Wrong (mono)
TTITLE22=Gladys Knight and The Pips - Is There A Place (In His Heart For Me) (mono)
TTITLE23=Gladys Knight and The Pips - I Don't Want To Do Wrong (stereo promo version)
EXTD=
EXTT0=
EXTT1=
EXTT2=
EXTT3=
EXTT4=
EXTT5=
EXTT6=
EXTT7=
EXTT8=
EXTT9=
EXTT10=
EXTT11=
EXTT12=
EXTT13=
EXTT14=
EXTT15=
EXTT16=
EXTT17=
EXTT18=
EXTT19=
EXTT20=
EXTT21=
EXTT22=
EXTT23=
PLAYORDER=
